<svg width="32" height="32" viewBox="0 0 32 32" fill="none" xmlns="http://www.w3.org/2000/svg">
  <rect width="32" height="32" rx="8" fill="url(#g)"/>
  <path d="M22 13V19a1.5 1.5 0 0 1-.75 1.3l-5.25 3a1.5 1.5 0 0 1-1.5 0l-5.25-3A1.5 1.5 0 0 1 8.5 19V13a1.5 1.5 0 0 1 .75-1.3l5.25-3a1.5 1.5 0 0 1 1.5 0l5.25 3A1.5 1.5 0 0 1 22 13z" stroke="white" stroke-width="1.5"/>
  <path d="M8.7 11.7L15.25 16l6.55-4.3" stroke="white" stroke-width="1.5"/>
  <path d="M15.25 23V16" stroke="white" stroke-width="1.5"/>
  <defs>
    <linearGradient id="g" x1="0" y1="0" x2="32" y2="32">
      <stop stop-color="#5934FF"/>
      <stop offset="1" stop-color="#4101F6"/>
    </linearGradient>
  </defs>
</svg>